<svg xmlns="http://www.w3.org/2000/svg" width="159" height="98" viewBox="0 0 159 98">
  <g id="Logo" transform="translate(-419 -299)">
    <g id="Person" transform="translate(430.103 299)">
      <g id="Ellipse_12" data-name="Ellipse 12" transform="translate(3.897 5)" fill="#3e301b" stroke="#514520" stroke-width="1">
        <ellipse cx="10" cy="9.5" rx="10" ry="9.5" stroke="none"/>
        <ellipse cx="10" cy="9.5" rx="9.5" ry="9" fill="none"/>
      </g>
      <g id="Ellipse_13" data-name="Ellipse 13" transform="translate(32.897 5)" fill="#462b1b" stroke="#67592c" stroke-width="1">
        <ellipse cx="10" cy="9.5" rx="10" ry="9.5" stroke="none"/>
        <ellipse cx="10" cy="9.5" rx="9.5" ry="9" fill="none"/>
      </g>
      <g id="Ellipse_14" data-name="Ellipse 14" transform="translate(18.897)" fill="#2e2313" stroke="#67592c" stroke-width="1">
        <circle cx="9.5" cy="9.5" r="9.5" stroke="none"/>
        <circle cx="9.5" cy="9.5" r="9" fill="none"/>
      </g>
      <g id="Path_9" data-name="Path 9" transform="translate(8.826 38.719)" fill="#2e2313">
        <path d="M 9.679715156555176 18.85943603515625 C 8.017465591430664 18.85943603515625 7.042634963989258 18.60750579833984 6.314985275268555 17.98985481262207 C 5.583895206451416 17.36928558349609 5.043664932250977 16.31980514526367 4.295955181121826 14.86725521087646 L 4.145415306091309 14.57502555847168 C 3.888935089111328 14.07963562011719 3.323665142059326 13.48152542114258 2.669125080108643 12.78897476196289 C 1.75371515750885 11.82039546966553 0.5000051856040955 10.49386501312256 0.5000051856040955 9.679715156555176 C 0.5000051856040955 4.618005275726318 4.618005275726318 0.5000051856040955 9.679715156555176 0.5000051856040955 C 14.74142551422119 0.5000051856040955 18.85943603515625 4.618005275726318 18.85943603515625 9.679715156555176 C 18.85943603515625 14.74142551422119 14.74142551422119 18.85943603515625 9.679715156555176 18.85943603515625 Z" stroke="none"/>
        <path d="M 9.679715156555176 0.9999942779541016 C 4.893705368041992 0.9999942779541016 0.9999942779541016 4.893705368041992 0.9999942779541016 9.679715156555176 C 0.9999942779541016 9.759445190429688 1.040075302124023 10.07346534729004 1.555854797363281 10.76650524139404 C 1.96412467956543 11.31510543823242 2.507265090942383 11.88978576660156 3.032514572143555 12.4455451965332 C 3.71296501159668 13.16551494598389 4.300615310668945 13.7872953414917 4.589775085449219 14.34579467773438 L 4.740514755249023 14.63840484619141 C 5.461874961853027 16.03976440429688 5.983065605163574 17.05226516723633 6.638545036315918 17.60865592956543 C 7.097925186157227 17.99858474731445 7.784305572509766 18.35942459106445 9.679715156555176 18.35942459106445 C 14.46572494506836 18.35942459106445 18.35942459106445 14.46572494506836 18.35942459106445 9.679715156555176 C 18.35942459106445 4.893705368041992 14.46572494506836 0.9999942779541016 9.679715156555176 0.9999942779541016 M 9.679715156555176 -5.7220458984375e-06 C 15.02567481994629 -5.7220458984375e-06 19.35942459106445 4.333755493164062 19.35942459106445 9.679715156555176 C 19.35942459106445 15.02567481994629 15.02567481994629 19.35942459106445 9.679715156555176 19.35942459106445 C 5.932194709777832 19.35942459106445 5.384554862976074 18.06757545471191 3.701065063476562 14.80426502227783 C 3.089914321899414 13.62386512756348 -5.7220458984375e-06 11.27815532684326 -5.7220458984375e-06 9.679715156555176 C -5.7220458984375e-06 4.333755493164062 4.333755493164062 -5.7220458984375e-06 9.679715156555176 -5.7220458984375e-06 Z" stroke="none" fill="#67592c"/>
      </g>
      <g id="Path_8" data-name="Path 8" transform="translate(33.31 37.58)" fill="#2e2313">
        <path d="M 8.82562255859375 18.85943603515625 C 4.234862327575684 18.85943603515625 0.5000025629997253 14.74142551422119 0.5000025629997253 9.679715156555176 C 0.5000025629997253 4.618005275726318 4.234862327575684 0.5000051856040955 8.82562255859375 0.5000051856040955 C 13.41638278961182 0.5000051856040955 17.15124320983887 4.618005275726318 17.15124320983887 9.679715156555176 C 17.15124320983887 10.20707511901855 16.44125175476074 10.93105506896973 15.81483268737793 11.56980514526367 C 15.21186256408691 12.18465518951416 14.58836269378662 12.82042503356934 14.33638286590576 13.48917484283447 C 13.73336219787598 15.09685516357422 13.16774272918701 16.50341606140137 12.34815216064453 17.44201469421387 C 11.49218273162842 18.42228507995605 10.40579223632812 18.85943603515625 8.82562255859375 18.85943603515625 Z" stroke="none"/>
        <path d="M 8.82562255859375 0.9999942779541016 C 4.510562896728516 0.9999942779541016 1.000001907348633 4.893705368041992 1.000001907348633 9.679715156555176 C 1.000001907348633 14.46572494506836 4.510562896728516 18.35942459106445 8.82562255859375 18.35942459106445 C 10.24867248535156 18.35942459106445 11.21890258789062 17.97505569458008 11.97153282165527 17.11314582824707 C 12.73594284057617 16.23773574829102 13.28265190124512 14.87478446960449 13.86849212646484 13.31288528442383 C 14.15762233734131 12.54555511474609 14.81861305236816 11.8715353012085 15.45785236358643 11.2197151184082 C 15.87492275238037 10.79443550109863 16.65124320983887 10.00281524658203 16.65124320983887 9.679715156555176 C 16.65124320983887 4.893705368041992 13.14068222045898 0.9999942779541016 8.82562255859375 0.9999942779541016 M 8.82562255859375 -5.7220458984375e-06 C 13.69988250732422 -5.7220458984375e-06 17.65124320983887 4.333755493164062 17.65124320983887 9.679715156555176 C 17.65124320983887 10.9841251373291 15.29351234436035 12.36704444885254 14.80427265167236 13.66547584533691 C 13.54555320739746 17.02129554748535 12.51056289672852 19.35942459106445 8.82562255859375 19.35942459106445 C 3.951362609863281 19.35942459106445 1.9073486328125e-06 15.02567481994629 1.9073486328125e-06 9.679715156555176 C 1.9073486328125e-06 4.333755493164062 3.951362609863281 -5.7220458984375e-06 8.82562255859375 -5.7220458984375e-06 Z" stroke="none" fill="#67592c"/>
      </g>
      <path id="Path_2" data-name="Path 2" d="M23.657,0C35.815,0,39.952,13.513,39.952,30.181c0,9.468-2.85,18.8-6.324,24.481-2.478,4.058-4.718,5.7-9.971,5.7-4.182,0-6-2.806-8.819-5.7C9.792,49.485,5.667,41.116,5.667,30.181,5.667,13.513,11.5,0,23.657,0Z" transform="translate(7.023 18.221)" fill="#aa883e"/>
      <g id="Path_7" data-name="Path 7" transform="translate(-2.5 14.235)" fill="#2e2313">
        <path d="M 10.75623226165771 18.85943603515625 C 8.379631996154785 18.85943603515625 6.394141674041748 17.94421577453613 5.014421939849854 16.21271514892578 C 3.715401887893677 14.58250522613525 3.000001907348633 12.26237487792969 3.000001907348633 9.679715156555176 C 3.000001907348633 7.097054958343506 3.715401887893677 4.776925086975098 5.014421939849854 3.14671516418457 C 6.394141674041748 1.415225148200989 8.379631996154785 0.5000051856040955 10.75623226165771 0.5000051856040955 C 15.81794166564941 0.5000051856040955 19.93594169616699 4.618005275726318 19.93594169616699 9.679715156555176 C 19.93594169616699 14.74142551422119 15.81794166564941 18.85943603515625 10.75623226165771 18.85943603515625 Z" stroke="none"/>
        <path d="M 10.75623226165771 0.9999942779541016 C 8.5372314453125 0.9999942779541016 6.686962127685547 1.850065231323242 5.405452728271484 3.458305358886719 C 4.176702499389648 5.000334739685059 3.500001907348633 7.209805488586426 3.500001907348633 9.679715156555176 C 3.500001907348633 12.14962577819824 4.176702499389648 14.35909461975098 5.405452728271484 15.90111541748047 C 6.686962127685547 17.50935554504395 8.5372314453125 18.35942459106445 10.75623226165771 18.35942459106445 C 15.5422420501709 18.35942459106445 19.43594169616699 14.46572494506836 19.43594169616699 9.679715156555176 C 19.43594169616699 4.893705368041992 15.5422420501709 0.9999942779541016 10.75623226165771 0.9999942779541016 M 10.75623226165771 -5.7220458984375e-06 C 16.10218238830566 -5.7220458984375e-06 20.43594169616699 4.333755493164062 20.43594169616699 9.679715156555176 C 20.43594169616699 15.02567481994629 16.10218238830566 19.35942459106445 10.75623226165771 19.35942459106445 C 5.410272598266602 19.35942459106445 2.500001907348633 15.02567481994629 2.500001907348633 9.679715156555176 C 2.500001907348633 4.333755493164062 5.410272598266602 -5.7220458984375e-06 10.75623226165771 -5.7220458984375e-06 Z" stroke="none" fill="#67592c"/>
      </g>
      <g id="Path_5" data-name="Path 5" transform="translate(0.639 27.9)" fill="#462b1b">
        <path d="M 9.610319137573242 18.35943603515625 C 8.298079490661621 18.35943603515625 7.06796932220459 16.90959548950195 5.878369331359863 15.50748538970947 C 5.374189376831055 14.91324520111084 4.85284948348999 14.29876518249512 4.319259166717529 13.79347515106201 C 2.395549297332764 11.97631549835205 1.499999284744263 10.12661552429199 1.499999284744263 7.971525192260742 C 1.499999284744263 5.720155239105225 2.253739356994629 3.965705156326294 3.740289449691772 2.756895065307617 C 5.153739452362061 1.607525110244751 7.183569431304932 1.000005125999451 9.610319137573242 1.000005125999451 C 14.23934936523438 1.000005125999451 18.00533866882324 4.893705368041992 18.00533866882324 9.679715156555176 C 18.00533866882324 14.46572494506836 14.23934936523438 18.35943603515625 9.610319137573242 18.35943603515625 Z" stroke="none"/>
        <path d="M 9.610319137573242 1.999994277954102 C 7.415979385375977 1.999994277954102 5.60431957244873 2.53001594543457 4.371199607849121 3.532745361328125 C 3.129558563232422 4.542405128479004 2.5 6.035824775695801 2.5 7.971525192260742 C 2.5 9.832574844360352 3.295999526977539 11.45127487182617 5.00685977935791 13.06738471984863 C 5.580059051513672 13.61019515991211 6.119359016418457 14.24582481384277 6.640889167785645 14.86052513122559 C 7.585489273071289 15.97385501861572 8.761059761047363 17.35942459106445 9.610319137573242 17.35942459106445 C 13.68794918060303 17.35942459106445 17.00533866882324 13.91432571411133 17.00533866882324 9.679715156555176 C 17.00533866882324 5.44510555267334 13.68794918060303 1.999994277954102 9.610319137573242 1.999994277954102 M 9.610319137573242 -5.7220458984375e-06 C 14.79904937744141 -5.7220458984375e-06 19.00533866882324 4.333755493164062 19.00533866882324 9.679715156555176 C 19.00533866882324 15.02567481994629 14.79904937744141 19.35942459106445 9.610319137573242 19.35942459106445 C 7.161239624023438 19.35942459106445 5.426949501037598 16.21965599060059 3.631669044494629 14.51957511901855 C 1.883869171142578 12.86857509613037 0.5 10.7941951751709 0.5 7.971525192260742 C 0.5 2.625564575195312 4.421599388122559 -5.7220458984375e-06 9.610319137573242 -5.7220458984375e-06 Z" stroke="none" fill="#514520"/>
      </g>
      <g id="Ellipse_4" data-name="Ellipse 4" transform="translate(7.897 28)" fill="#3e301b" stroke="#514520" stroke-width="2">
        <circle cx="10" cy="10" r="10" stroke="none"/>
        <circle cx="10" cy="10" r="9" fill="none"/>
      </g>
      <g id="Path_10" data-name="Path 10" transform="translate(6.333 18.79)" fill="#46341b">
        <path d="M 9.895016670227051 18.04003715515137 C 5.047347068786621 18.04003715515137 1.249996900558472 14.2426872253418 1.249996900558472 9.395017623901367 C 1.249996900558472 7.308387756347656 1.975016832351685 5.335277557373047 3.346666812896729 3.688997507095337 C 4.079576969146729 2.807097673416138 5.04267692565918 2.073607683181763 6.132466793060303 1.567107677459717 C 7.29906702041626 1.024917602539062 8.564976692199707 0.749997615814209 9.895016670227051 0.749997615814209 C 14.81887722015381 0.749997615814209 18.82473754882812 4.628137588500977 18.82473754882812 9.395017623901367 C 18.82473754882812 14.16189765930176 14.81887722015381 18.04003715515137 9.895016670227051 18.04003715515137 Z" stroke="none"/>
        <path d="M 9.895016670227051 1.499998092651367 C 8.674966812133789 1.499998092651367 7.515417098999023 1.751407623291016 6.448566436767578 2.247238159179688 C 5.458827018737793 2.707237243652344 4.585866928100586 3.371297836303711 3.922876358032227 4.1690673828125 C 2.646945953369141 5.700468063354492 1.999996185302734 7.458737373352051 1.999996185302734 9.395017623901367 C 1.999996185302734 11.52485752105713 2.802467346191406 13.50966739654541 4.259576797485352 14.98381805419922 C 5.72957706451416 16.47100830078125 7.73094654083252 17.29003715515137 9.895016670227051 17.29003715515137 C 14.40532684326172 17.29003715515137 18.07473754882812 13.74834823608398 18.07473754882812 9.395017623901367 C 18.07473754882812 5.041687965393066 14.40532684326172 1.499998092651367 9.895016670227051 1.499998092651367 M 9.895016670227051 -1.9073486328125e-06 C 15.24097633361816 -1.9073486328125e-06 19.57473754882812 4.206297874450684 19.57473754882812 9.395017623901367 C 19.57473754882812 14.58373832702637 15.24097633361816 18.79003715515137 9.895016670227051 18.79003715515137 C 4.549057006835938 18.79003715515137 0.4999961853027344 14.58373832702637 0.4999961853027344 9.395017623901367 C 0.4999961853027344 7.086037635803223 1.301816940307617 4.971597671508789 2.770456314086914 3.208897590637207 C 4.360476493835449 1.295637130737305 6.928007125854492 -1.9073486328125e-06 9.895016670227051 -1.9073486328125e-06 Z" stroke="none" fill="#514520"/>
      </g>
      <g id="Ellipse_3" data-name="Ellipse 3" transform="translate(13.897 10)" fill="#342815" stroke="#514520" stroke-width="1.5">
        <ellipse cx="9.5" cy="9" rx="9.5" ry="9" stroke="none"/>
        <ellipse cx="9.5" cy="9" rx="8.75" ry="8.25" fill="none"/>
      </g>
      <g id="Path_3" data-name="Path 3" transform="translate(37.295 27.9)" fill="#3e301b">
        <path d="M 9.586952209472656 18.17389869689941 C 4.852091789245605 18.17389869689941 1.000001788139343 14.32180881500244 1.000001788139343 9.586948394775391 C 1.000001788139343 4.852088451385498 4.852091789245605 0.9999983906745911 9.586952209472656 0.9999983906745911 C 11.95753192901611 0.9999983906745911 13.79412174224854 1.624268412590027 15.04568195343018 2.855468511581421 C 16.29997253417969 4.089348316192627 16.93594169616699 5.906428337097168 16.93594169616699 8.256228446960449 C 16.93594169616699 9.915998458862305 15.70023155212402 11.3404483795166 14.3919620513916 12.84854793548584 C 14.18166160583496 13.09096813201904 13.96420192718506 13.34164810180664 13.75432205200195 13.59113883972168 C 13.19894218444824 14.25397872924805 12.7971715927124 14.98661804199219 12.40863227844238 15.69512844085693 C 11.51542186737061 17.32393836975098 10.98425197601318 18.17389869689941 9.586952209472656 18.17389869689941 Z" stroke="none"/>
        <path d="M 9.586952209472656 1.999998092651367 C 5.403491973876953 1.999998092651367 2.000001907348633 5.403488159179688 2.000001907348633 9.586948394775391 C 2.000001907348633 13.77040863037109 5.403491973876953 17.17389869689941 9.586952209472656 17.17389869689941 C 10.32708168029785 17.17389869689941 10.61790180206299 16.88087844848633 11.53182220458984 15.21429824829102 C 11.92440223693848 14.4984188079834 12.36935234069824 13.6870288848877 12.98908233642578 12.94740867614746 C 13.20384216308594 12.69209861755371 13.42384147644043 12.43849849700928 13.63659191131592 12.19325828552246 C 14.81905174255371 10.83017826080322 15.93594169616699 9.542698860168457 15.93594169616699 8.256228446960449 C 15.93594169616699 4.104898452758789 13.79983139038086 1.999998092651367 9.586952209472656 1.999998092651367 M 9.586952209472656 -1.9073486328125e-06 C 14.88167190551758 -1.9073486328125e-06 17.93594169616699 2.961498260498047 17.93594169616699 8.256228446960449 C 17.93594169616699 10.60178852081299 16.0582218170166 12.40579795837402 14.51957130432129 14.23487854003906 C 12.90091133117676 16.16670799255371 12.53611183166504 19.17389869689941 9.586952209472656 19.17389869689941 C 4.292222023010254 19.17389869689941 1.9073486328125e-06 14.88166809082031 1.9073486328125e-06 9.586948394775391 C 1.9073486328125e-06 4.292218208312988 4.292222023010254 -1.9073486328125e-06 9.586952209472656 -1.9073486328125e-06 Z" stroke="none" fill="#514520"/>
      </g>
      <g id="Ellipse_6" data-name="Ellipse 6" transform="translate(23.897 29)" fill="#462b1b" stroke="#514520" stroke-width="2">
        <circle cx="9.5" cy="9.5" r="9.5" stroke="none"/>
        <circle cx="9.5" cy="9.5" r="8.5" fill="none"/>
      </g>
      <g id="Ellipse_5" data-name="Ellipse 5" transform="translate(18.897 19)" fill="#4a381d" stroke="#514520" stroke-width="2">
        <ellipse cx="9.5" cy="10" rx="9.5" ry="10" stroke="none"/>
        <ellipse cx="9.5" cy="10" rx="8.5" ry="9" fill="none"/>
      </g>
      <g id="Path_6" data-name="Path 6" transform="translate(42.42 14.45)" fill="#2e2313">
        <path d="M 9.67971134185791 18.64412307739258 C 4.618000984191895 18.64412307739258 0.5000011920928955 14.526123046875 0.5000011920928955 9.464413642883301 C 0.5000011920928955 7.027013301849365 1.482521176338196 4.606643676757812 3.195641279220581 2.823913335800171 C 4.945571422576904 1.002893447875977 7.248321056365967 3.446044956945116e-06 9.67971134185791 3.446044956945116e-06 C 11.4312915802002 3.446044956945116e-06 11.86344146728516 0.7440634369850159 12.57941150665283 1.976783394813538 C 12.69776153564453 2.180553436279297 12.82014083862305 2.391253471374512 12.95565128326416 2.610153436660767 C 14.43810081481934 4.988973617553711 15.15836143493652 7.230613231658936 15.15836143493652 9.464413642883301 C 15.15836143493652 11.87725353240967 15.04487133026123 14.35058307647705 14.22157096862793 16.09566307067871 C 13.40129089355469 17.8343334197998 11.95808124542236 18.64412307739258 9.67971134185791 18.64412307739258 Z" stroke="none"/>
        <path d="M 9.67971134185791 0.5000038146972656 C 7.385661125183105 0.5000038146972656 5.210941314697266 1.448352813720703 3.556171417236328 3.170363426208496 C 1.93169116973877 4.86085319519043 1.000000953674316 7.154943466186523 1.000000953674316 9.464413642883301 C 1.000000953674316 14.25042343139648 4.893701553344727 18.14412307739258 9.67971134185791 18.14412307739258 C 11.77009105682373 18.14412307739258 13.03138160705566 17.44655418395996 13.76937103271484 15.88232326507568 C 14.55274105072021 14.22187328338623 14.65836143493652 11.70624351501465 14.65836143493652 9.464413642883301 C 14.65836143493652 7.326863288879395 13.96285152435303 5.171733856201172 12.53051090240479 2.873323440551758 C 12.39131164550781 2.648453712463379 12.26713085174561 2.434663772583008 12.14705085754395 2.227903366088867 C 11.4372615814209 1.005832672119141 11.14347076416016 0.5000038146972656 9.67971134185791 0.5000038146972656 M 9.67971134185791 -0.4999961853027344 C 12.04263114929199 -0.4999961853027344 12.41813087463379 0.7919235229492188 13.38078117370605 2.346973419189453 C 14.39476108551025 3.974053382873535 15.65836143493652 6.481363296508789 15.65836143493652 9.464413642883301 C 15.65836143493652 14.81037330627441 15.02567100524902 19.14412307739258 9.67971134185791 19.14412307739258 C 4.333761215209961 19.14412307739258 9.5367431640625e-07 14.81037330627441 9.5367431640625e-07 9.464413642883301 C 9.5367431640625e-07 4.118453025817871 4.333761215209961 -0.4999961853027344 9.67971134185791 -0.4999961853027344 Z" stroke="none" fill="#514520"/>
      </g>
      <g id="Ellipse_7" data-name="Ellipse 7" transform="translate(26.897 9)" fill="#342815" stroke="#514520" stroke-width="1.5">
        <ellipse cx="10" cy="9.5" rx="10" ry="9.5" stroke="none"/>
        <ellipse cx="10" cy="9.5" rx="9.25" ry="8.75" fill="none"/>
      </g>
      <g id="Path_4" data-name="Path 4" transform="translate(33.31 18.79)" fill="#3e301b">
        <path d="M 9.679715156555176 18.04003715515137 C 4.755855083465576 18.04003715515137 0.7500051856040955 14.16189765930176 0.7500051856040955 9.395017623901367 C 0.7500051856040955 4.628137588500977 4.755855083465576 0.749997615814209 9.679715156555176 0.749997615814209 C 14.60357475280762 0.749997615814209 18.60943603515625 4.628137588500977 18.60943603515625 9.395017623901367 C 18.60943603515625 14.16189765930176 14.60357475280762 18.04003715515137 9.679715156555176 18.04003715515137 Z" stroke="none"/>
        <path d="M 9.679715156555176 1.499998092651367 C 5.169404983520508 1.499998092651367 1.499994277954102 5.041687965393066 1.499994277954102 9.395017623901367 C 1.499994277954102 13.74834823608398 5.169404983520508 17.29003715515137 9.679715156555176 17.29003715515137 C 14.19002532958984 17.29003715515137 17.85942459106445 13.74834823608398 17.85942459106445 9.395017623901367 C 17.85942459106445 5.041687965393066 14.19002532958984 1.499998092651367 9.679715156555176 1.499998092651367 M 9.679715156555176 -1.9073486328125e-06 C 15.02567481994629 -1.9073486328125e-06 19.35942459106445 4.206297874450684 19.35942459106445 9.395017623901367 C 19.35942459106445 14.58373832702637 15.02567481994629 18.79003715515137 9.679715156555176 18.79003715515137 C 4.333755493164062 18.79003715515137 -5.7220458984375e-06 14.58373832702637 -5.7220458984375e-06 9.395017623901367 C -5.7220458984375e-06 4.206297874450684 4.333755493164062 -1.9073486328125e-06 9.679715156555176 -1.9073486328125e-06 Z" stroke="none" fill="#514520"/>
      </g>
    </g>
    <g id="Curly_Coder" data-name="Curly Coder" transform="translate(502.132 329.747)">
      <g id="Curly" transform="translate(0 0)">
        <text id="C" transform="translate(-0.132 30.253)" fill="#75298f" font-size="33" font-family="DancingScript-Medium, Dancing Script" font-weight="500"><tspan x="0" y="0">C</tspan></text>
        <text id="urly" transform="translate(17.868 30.253)" font-size="20" font-family="Montserrat-Italic, Montserrat" font-style="italic"><tspan x="0" y="0">urly</tspan></text>
      </g>
      <g id="Coder" transform="translate(11.388 28.47)">
        <text id="C-2" data-name="C" transform="translate(0.48 29.783)" fill="#f6d96c" font-size="33" font-family="DancingScript-Medium, Dancing Script" font-weight="500"><tspan x="0" y="0">C</tspan></text>
        <text id="oder" transform="translate(17.48 29.783)" font-size="20" font-family="Montserrat-Italic, Montserrat" font-style="italic"><tspan x="0" y="0">oder</tspan></text>
      </g>
    </g>
    <g id="Computer" transform="translate(419 353.093)">
      <g id="Path_1" data-name="Path 1" transform="translate(-20 18.79)" fill="#fff">
        <path d="M 34.43532180786133 15.5894718170166 L 22.14945220947266 0.9999980330467224 L 27.97153472900391 0.9999980330467224 L 35.97105026245117 0.9999980330467224 L 34.43532180786133 15.5894718170166 Z" stroke="none"/>
        <path d="M 24.29889297485352 1.999998092651367 L 33.68678283691406 13.14812278747559 L 34.86026763916016 1.999998092651367 L 24.29889297485352 1.999998092651367 M 20.00000381469727 -1.9073486328125e-06 L 37.08184432983398 -1.9073486328125e-06 L 35.18386459350586 18.03083801269531 L 20.00000381469727 -1.9073486328125e-06 Z" stroke="none" fill="#000"/>
      </g>
      <g id="Rectangle_1" data-name="Rectangle 1" transform="translate(15 -0.093)" fill="#fff" stroke="#000" stroke-width="2">
        <rect width="61" height="37" stroke="none"/>
        <rect x="1" y="1" width="59" height="35" fill="none"/>
      </g>
      <text id="CC" transform="translate(34 23.907)" fill="#75298f" font-size="20" font-family="DancingScript-Medium, Dancing Script" font-weight="500"><tspan x="0" y="0">C</tspan><tspan y="0" fill="#f6d96c">C</tspan></text>
    </g>
  </g>
</svg>
