<svg xmlns="http://www.w3.org/2000/svg" xmlns:xlink="http://www.w3.org/1999/xlink" width="530.346" height="715.459" viewBox="0 0 530.346 715.459">
  <defs>
    <linearGradient id="linear-gradient" x1="9.859" x2="-8.161" y2="0.054" gradientUnits="objectBoundingBox">
      <stop offset="0" stop-color="#b89b62"/>
      <stop offset="0.068" stop-color="#a2864c"/>
      <stop offset="1" stop-color="#b89b62"/>
    </linearGradient>
    <linearGradient id="linear-gradient-2" x1="0.5" x2="0.5" y2="2.25" gradientUnits="objectBoundingBox">
      <stop offset="0" stop-color="#b29354"/>
      <stop offset="1" stop-color="#877143"/>
    </linearGradient>
    <radialGradient id="radial-gradient" cx="0.5" cy="0.5" r="1.13" gradientUnits="objectBoundingBox">
      <stop offset="0" stop-color="#ba9c60"/>
      <stop offset="1" stop-color="#a78b52"/>
    </radialGradient>
    <linearGradient id="linear-gradient-3" x1="0.5" y1="-0.095" x2="0.5" y2="0.799" gradientUnits="objectBoundingBox">
      <stop offset="0" stop-color="#b29354"/>
      <stop offset="1" stop-color="#a58951"/>
    </linearGradient>
    <linearGradient id="linear-gradient-4" x1="0.5" y1="0.5" x2="0.5" y2="1" gradientUnits="objectBoundingBox">
      <stop offset="0" stop-color="#a7766f"/>
      <stop offset="0.31" stop-color="#9f716b"/>
      <stop offset="1" stop-color="#9e706a"/>
    </linearGradient>
    <linearGradient id="linear-gradient-5" x1="-3.06" y1="1.033" x2="4.766" y2="-2.622" gradientUnits="objectBoundingBox">
      <stop offset="0" stop-color="#b29354"/>
      <stop offset="1" stop-color="#a1854d"/>
    </linearGradient>
  </defs>
  <g id="Group_3" data-name="Group 3" transform="translate(-1415.586 -329.271) rotate(-8)">
    <path id="Path_14" data-name="Path 14" d="M264.2-23c172.382,0,224.614,75.835,224.614,183.775S448.25,487.487,275.868,487.487,25,268.716,25,160.775,91.817-23,264.2-23Z" transform="translate(1322 610)" fill="#433d2d"/>
    <path id="Path_28" data-name="Path 28" d="M20.459,11.956c9.666,0,17.5,10.186,17.5,33.546s-7.836,42.3-17.5,42.3c-4.582,0-7.222-10.7-10.7-18.475C6.655,62.408,2.957,57.79,2.957,45.5c0-2.685-3.646-7.959-3.89-13.127-.35-7.383-1.176-15.663,0-20.419.886-3.6,8.056-13.484,10.7-13.613,1.546-.19,4.459,1.35,6.806,5.834C17.808,6.563,18.424,11.956,20.459,11.956Z" transform="translate(1428.638 989.267)" fill="#b29354"/>
    <path id="Path_13" data-name="Path 13" d="M160.936,38.5c107.94,0,148.77,7.769,148.77,153.159,0,91.16-17.6,148.27-58.341,196.039-23.524,27.588-50.167,67.213-90.429,67.213-35.62,0-65.89-44.228-87.512-67.213C31.116,342.732,18,289.07,18,191.659,18,46.269,53,38.5,160.936,38.5Z" transform="translate(1431.097 803.743)" fill="#b29354"/>
    <path id="Path_29" data-name="Path 29" d="M15.96,11.956c-9.666,0-17.5,10.186-17.5,33.546s7.836,42.3,17.5,42.3c4.582,0,7.222-10.7,10.7-18.475,3.109-6.917,6.807-11.535,6.807-23.823,0-2.685,3.646-7.959,3.89-13.127.35-7.383,1.176-15.663,0-20.419-.886-3.6-8.056-13.484-10.7-13.613-1.546-.19-4.459,1.35-6.806,5.834C18.611,6.563,18,11.956,15.96,11.956Z" transform="translate(1722.594 989.267)" fill="#b29354"/>
    <ellipse id="Ellipse_24" data-name="Ellipse 24" cx="5.635" cy="11.739" rx="5.635" ry="11.739" transform="translate(1443.63 1033.067)" fill="#a2864d"/>
    <ellipse id="Ellipse_25" data-name="Ellipse 25" cx="6.104" cy="11.739" rx="6.104" ry="11.739" transform="translate(1734.747 1033.067)" fill="#a2864d"/>
    <g id="Path_16" data-name="Path 16" transform="translate(1695.577 858.287)" fill="#fff">
      <path d="M24.807,0Z" stroke="none"/>
      <path d="M 15.97080612182617 0 L 33.64348602294922 0 L 15.97080612182617 0 Z" stroke="none" fill="#707070"/>
    </g>
    <g id="Path_19" data-name="Path 19" transform="translate(1607.509 979.845)" fill="#fff">
      <path d="M 57.26902008056641 34.9769172668457 C 50.28876113891602 34.9769172668457 42.59052658081055 33.932373046875 34.38814926147461 31.8723030090332 C 27.2117748260498 30.06992721557617 20.80637550354004 27.79484558105469 16.02777481079102 26.01416206359863 C 13.68922138214111 25.14805603027344 11.51448059082031 24.63483238220215 9.595739364624023 24.18202209472656 C 7.725480556488037 23.74065589904785 6.110280513763428 23.3594799041748 5.028221607208252 22.78894996643066 C 3.957033395767212 22.22416305541992 3.499998092651367 21.53558540344238 3.499998092651367 20.48653984069824 C 3.499998092651367 15.64962100982666 16.79616355895996 10.11608028411865 23.18597412109375 7.456809520721436 C 29.72792816162109 4.725927352905273 34.58573913574219 3.075350761413574 39.42978668212891 1.937480211257935 C 45.05697631835938 0.6156449317932129 50.72551727294922 -2.097455308103235e-06 57.26902008056641 -2.097455308103235e-06 C 62.68787002563477 -2.097455308103235e-06 67.83270263671875 0.7555508613586426 72.99751281738281 2.309821367263794 C 77.36087799072266 3.622903823852539 80.80396270751953 5.223762512207031 83.57052612304688 6.510068416595459 C 84.30648040771484 6.852244853973389 85.00162506103516 7.175456523895264 85.62983703613281 7.452633380889893 C 91.00288391113281 9.780774116516113 93.90046691894531 15.90529155731201 93.90046691894531 20.48653984069824 C 93.90046691894531 23.08300971984863 93.19890594482422 25.23296356201172 91.75569152832031 27.05926895141602 C 90.29924774169922 28.90231513977051 88.12773895263672 30.37197494506836 85.11709594726562 31.55220985412598 C 79.23862457275391 33.85668182373047 70.12943267822266 34.9769172668457 57.26902008056641 34.9769172668457 Z" stroke="none"/>
      <path d="M 57.26902008056641 0.4999923706054688 C 50.76504516601562 0.4999923706054688 45.13283157348633 1.111431121826172 39.54413223266602 2.424232482910156 C 34.72824478149414 3.55548095703125 29.89383697509766 5.198493957519531 23.37807464599609 7.918432235717773 C 18.84637451171875 9.804407119750977 14.13844299316406 11.85128211975098 10.40674591064453 14.03945732116699 C 5.11151123046875 17.14445686340332 3.999992370605469 19.25922012329102 3.999992370605469 20.48653030395508 C 3.999992370605469 21.34650802612305 4.353668212890625 21.86804389953613 5.261421203613281 22.3466682434082 C 6.287132263183594 22.88748168945312 7.873611450195312 23.26188278198242 9.710594177246094 23.69539451599121 C 11.64337158203125 24.15151977539062 13.83402252197266 24.66849517822266 16.20236968994141 25.54563140869141 C 20.96885681152344 27.3217945098877 27.35730743408203 29.59094429016113 34.50993347167969 31.38735580444336 C 42.67251968383789 33.43743133544922 50.32978439331055 34.47690582275391 57.26902008056641 34.47690582275391 C 70.06584167480469 34.47690582275391 79.11533355712891 33.36795806884766 84.93459320068359 31.08669471740723 C 87.86051177978516 29.93968200683594 89.96338653564453 28.52089309692383 91.36341094970703 26.7492561340332 C 92.73414611816406 25.01466941833496 93.40047454833984 22.96610641479492 93.40047454833984 20.48653030395508 C 93.40047454833984 16.06443214416504 90.60844421386719 10.15480613708496 85.43409729003906 7.912755966186523 L 85.42799377441406 7.910093307495117 C 84.79528045654297 7.630918502807617 84.09796905517578 7.306707382202148 83.35971069335938 6.963457107543945 C 80.60760498046875 5.683868408203125 77.18252563476562 4.091381072998047 72.85342407226562 2.788608551025391 C 67.73604583740234 1.248607635498047 62.63834762573242 0.4999923706054688 57.26902008056641 0.4999923706054688 M 57.26902008056641 -0.5000076293945312 C 71.3779296875 -0.5000076293945312 80.65094757080078 4.709306716918945 85.83167266845703 6.995193481445312 C 91.42270660400391 9.417781829833984 94.40047454833984 15.74020767211914 94.40047454833984 20.48653030395508 C 94.40047454833984 31.24916839599609 82.50856781005859 35.47690582275391 57.26902008056641 35.47690582275391 C 41.29239654541016 35.47690582275391 25.71045684814453 30.15586853027344 15.85317993164062 26.48268127441406 C 8.8232421875 23.87909317016602 2.999992370605469 24.43643188476562 2.999992370605469 20.48653030395508 C 2.999992370605469 15.54648208618164 14.73783111572266 10.43113136291504 22.99384307861328 6.995193481445312 C 34.47248458862305 2.203544616699219 43.61443328857422 -0.5000076293945312 57.26902008056641 -0.5000076293945312 Z" stroke="none" fill="#9f8652"/>
    </g>
    <g id="Path_17" data-name="Path 17" transform="translate(1478.185 979.845)" fill="#fff">
      <path d="M 40.92187881469727 34.00479507446289 C 27.78353500366211 34.00479507446289 18.47669982910156 32.9141960144043 12.46957111358643 30.6706657409668 C 9.392276763916016 29.52137184143066 7.173123836517334 28.09073638916016 5.685276985168457 26.29701995849609 C 4.214818000793457 24.52425384521484 3.500006437301636 22.43813705444336 3.500006437301636 19.91946601867676 C 3.500006437301636 15.46933650970459 6.458712100982666 9.518348693847656 11.94198322296143 7.254830837249756 C 12.58632373809814 6.98399543762207 13.29618263244629 6.669560432434082 14.0477123260498 6.336666107177734 C 16.87387657165527 5.084795475006104 20.39113616943359 3.526807308197021 24.84921836853027 2.248677968978882 C 30.1269588470459 0.7355485558509827 35.38437271118164 -4.37011703979806e-06 40.92187881469727 -4.37011703979806e-06 C 47.60734939575195 -4.37011703979806e-06 53.39896011352539 0.5992662310600281 59.14842987060547 1.885948538780212 C 64.09722900390625 2.99344277381897 69.05976104736328 4.599819183349609 75.74187469482422 7.257277965545654 C 80.38794708251953 9.099384307861328 85.21597290039062 11.09943103790283 89.05446624755859 13.24377250671387 C 93.56108856201172 15.76134872436523 95.84613800048828 18.00737190246582 95.84613800048828 19.91946601867676 C 95.84613800048828 20.92972564697266 95.38028717041016 21.59477233886719 94.28846740722656 22.14321899414062 C 93.18067932128906 22.69967842102051 91.52948760986328 23.07091331481934 89.61756896972656 23.50077247619629 C 87.65882873535156 23.94116020202637 85.43873596191406 24.4403018951416 83.05297088623047 25.28208923339844 C 78.17107391357422 27.01520729064941 71.62840270996094 29.2291259765625 64.2978515625 30.9831485748291 C 55.91830062866211 32.9881591796875 48.05348968505859 34.00479507446289 40.92187881469727 34.00479507446289 Z" stroke="none"/>
      <path d="M 40.9218635559082 0.4999961853027344 C 35.431640625 0.4999961853027344 30.21929168701172 1.229209899902344 24.98699188232422 2.729320526123047 C 20.56206512451172 3.997945785522461 17.06228637695312 5.548194885253906 14.25017547607422 6.793832778930664 C 13.49641418457031 7.127719879150391 12.78446197509766 7.443082809448242 12.13870239257812 7.714532852172852 L 12.13276672363281 7.717008590698242 C 6.850341796875 9.897607803344727 4 15.63152122497559 4 19.91947174072266 C 4 22.31675720214844 4.677139282226562 24.29845809936523 6.070098876953125 25.9777946472168 C 7.500717163085938 27.70250701904297 9.651214599609375 29.08434677124023 12.64450073242188 30.2022705078125 C 18.59468841552734 32.42453384399414 27.84429931640625 33.50479507446289 40.9218635559082 33.50479507446289 C 48.01433944702148 33.50479507446289 55.84001541137695 32.49278259277344 64.18150329589844 30.49687004089355 C 71.48915100097656 28.74833297729492 78.01548767089844 26.53987121582031 82.88660430908203 24.81056976318359 C 85.30023193359375 23.95895767211914 87.53563690185547 23.45637130737305 89.50790405273438 23.0129451751709 C 91.38768005371094 22.5903205871582 93.01110076904297 22.22532081604004 94.06402587890625 21.69642066955566 C 95.12810516357422 21.16190719604492 95.34613037109375 20.59949493408203 95.34613037109375 19.91947174072266 C 95.34613037109375 18.73874664306641 94.2122802734375 16.6978588104248 88.81061553955078 13.68028259277344 C 84.9974365234375 11.55009651184082 80.18769073486328 9.557857513427734 75.55709838867188 7.721883773803711 C 68.90082550048828 5.074695587158203 63.96090316772461 3.475296020507812 59.03922653198242 2.373870849609375 C 53.32655334472656 1.095432281494141 47.56964111328125 0.4999961853027344 40.9218635559082 0.4999961853027344 M 40.9218635559082 -0.5000038146972656 C 54.86712646484375 -0.5000038146972656 64.20368957519531 2.130483627319336 75.92665100097656 6.792671203613281 C 84.35844421386719 10.13577079772949 96.34613037109375 15.11289596557617 96.34613037109375 19.91947174072266 C 96.34613037109375 23.76263427734375 90.39892578125 23.22035789489746 83.21933746337891 25.75359535217285 C 73.15222930908203 29.32753372192383 57.23859024047852 34.50479507446289 40.9218635559082 34.50479507446289 C 15.14504241943359 34.50479507446289 3 30.39129638671875 3 19.91947174072266 C 3 15.30138397216797 6.0411376953125 9.149795532226562 11.75119018554688 6.792671203613281 C 17.04220581054688 4.568546295166016 26.51261138916016 -0.5000038146972656 40.9218635559082 -0.5000038146972656 Z" stroke="none" fill="#9f8652"/>
    </g>
    <path id="Path_18" data-name="Path 18" d="M17.5,1.405C30.143.433,35,6,35,16.476S27.169,31.791,17.5,31.791,0,26.948,0,16.476,4.861,2.377,17.5,1.405Z" transform="translate(1504.522 980.371)" fill="#2e291d"/>
    <path id="Path_21" data-name="Path 21" d="M5.882,0c3.377,0,4.372,4.215,7.293,5.834,1.145.569,4.376-1.534,4.376,0,0,3.222-5.224,5.834-11.668,5.834s0-2.612,0-5.834S-.562,0,5.882,0Z" transform="translate(1556.981 991.5)" fill="#fecae9"/>
    <path id="Path_22" data-name="Path 22" d="M17.113,0C13.034,0,11.832,4.215,8.3,5.834c-1.383.569-5.286-1.534-5.286,0,0,3.222,6.31,5.834,14.095,5.834s0-2.612,0-5.834S24.9,0,17.113,0Z" transform="translate(1607.491 991.5)" fill="#fecae9"/>
    <path id="Path_20" data-name="Path 20" d="M17.5,1.25C7.836,1.25,0,6.3,0,17.064S7.836,32.608,17.5,32.608a22.033,22.033,0,0,0,10.824-2.654C32.051,28.026,35,23.672,35,17.064,35,6.3,27.169,1.25,17.5,1.25Z" transform="translate(1644.347 980.283)" fill="#2e291d"/>
    <path id="Path_23" data-name="Path 23" d="M51.17,0l44.5,6.812,4.945,13.608L47.05,14.585l-47.8,17.5L27.27,6.812l9.065-3.165Z" transform="translate(1473.913 942.882)" fill="#433d2d"/>
    <path id="Path_24" data-name="Path 24" d="M47.512,0,4.076,6.812-.75,20.419l52.284-5.834,46.653,17.5L70.838,6.812,61.99,3.646Z" transform="translate(1613.132 942.882)" fill="#433d2d"/>
    <path id="Path_25" data-name="Path 25" d="M18.135-5.25c2.653,0,2.239,15.274,3.568,25.652.462,3.557,0,15.16,0,20.675,0,17.127-3.172,28.059-7.084,28.059-1.549,0-16.9,19.306-18.362,15.315C-5.222,80.526,7.534,56.873,7.534,46.528c0-5.789-.76-25.076,0-30.629.227-1.674-6.14-11.066-5.443-13.127C3.306-1.036,16.075-5.25,18.135-5.25Z" transform="translate(1558.585 1005.744)" fill="url(#linear-gradient)"/>
    <path id="Path_26" data-name="Path 26" d="M39.38,0c21.749,0,39.38,5.224,39.38,11.668,0,3.177-6.05,3.479-13.856,5.834-2.776.844.829-1.384-3.646,0-3.68,1.147-15.714,5.834-21.878,5.834S25.743,18.376,19.69,17.5C5.834,18.961,0,16.289,0,11.668,0,5.224,17.631,0,39.38,0Z" transform="translate(1551.195 1085.818)" fill="url(#linear-gradient-2)"/>
    <ellipse id="Ellipse_21" data-name="Ellipse 21" cx="9.86" cy="7.513" rx="9.86" ry="7.513" transform="translate(1551.625 1082.839)" fill="#b59a65"/>
    <ellipse id="Ellipse_22" data-name="Ellipse 22" cx="9.86" cy="7.513" rx="9.86" ry="7.513" transform="translate(1609.848 1082.839)" fill="#b59a65"/>
    <ellipse id="Ellipse_20" data-name="Ellipse 20" cx="26.294" cy="11.739" rx="26.294" ry="11.739" transform="translate(1565.711 1077.204)" fill="url(#radial-gradient)"/>
    <path id="Path_32" data-name="Path 32" d="M70.966,15.01c32.154,0,76.218-28.786,76.218-19.921,0,2.873,2.091-.851-4.852,7.637-2.041,2.5-5.549-5.682-8.465,0-1.264,2.487-7.114,17.693-9.724,19.621-7.027,5.192-21.718,16.1-33.059,19.447-9.423,2.785-12.573,3.89-20.117,3.89-11.865,0-24.469-1.461-37.326-9.546C13.66,23.583-4.208.684-4.208-4.91-4.208-13.776,38.812,15.01,70.966,15.01Z" transform="translate(1522.343 1155.845)" fill="url(#linear-gradient-3)"/>
    <path id="Path_27" data-name="Path 27" d="M83.2,0l21.81,3.646,16.821,8.2L158.98,45.27,118.864,55.424,83.2,49.59,48.288,55.424,0,45.27,42.345,11.846l18.184-8.2Z" transform="translate(1674.441 1194.479) rotate(180)" fill="#a7766f"/>
    <line id="Line_3" data-name="Line 3" x2="48.132" y2="14.585" transform="translate(1516.19 1148.535)" fill="rgba(0,0,0,0)" stroke="#9e706a" stroke-width="1"/>
    <ellipse id="Ellipse_23" data-name="Ellipse 23" cx="30.52" cy="5.635" rx="30.52" ry="5.635" transform="translate(1565.711 1156.088)" fill="url(#linear-gradient-4)"/>
    <line id="Line_4" data-name="Line 4" x1="46.673" y2="14.585" transform="translate(1628.497 1148.535)" fill="none" stroke="#9e706a" stroke-width="1"/>
    <path id="Path_30" data-name="Path 30" d="M6.833,0c6.38,0,11.551,3.242,11.551,7.241s.545,0-5.834,0S2.826,24.635,2.826,20.636.453,0,6.833,0Z" transform="translate(1430.713 999.062)" fill="#a2864d"/>
    <path id="Path_31" data-name="Path 31" d="M4.745,0C-2.661,0,.815,5.125.815,8.75s-.633,0,6.773,0,9.184,11.407,9.184,7.782S12.151,0,4.745,0Z" transform="matrix(0.951, 0.309, -0.309, 0.951, 1742.603, 996.848)" fill="#a2864d"/>
    <path id="Path_33" data-name="Path 33" d="M6.291-10c7.849,0,24.7,45.438,31.116,51.535,5.993,5.663,0,14.6,0,26.254,0,16.486,20.742,54.377,23.337,70.982.67,4.158,4.094,0,0,0-4.808,0-13.562-6.2-23.337-20.419-8.67-12.607-18.376-33.191-21.392-37.922-3.878-6.052-9.724-29.412-9.724-38.894C6.291,39.447.6,28.505.457,25.977,6.291,18.2-9-10,6.291-10Z" transform="translate(1453.502 1057.896)" fill="url(#linear-gradient-5)"/>
    <path id="Path_34" data-name="Path 34" d="M128.2-1.249c25.072.721,46.167,2.32,63.69,3.889,17.734,1.587,34.431,7.021,44.727,15.558,2.3,1.905,15.207,16.757,22.365,32.088a78.747,78.747,0,0,1,6.806,28.2c0,4.648-24.092-14.965-58.341-28.2C183.66,41.094,153.074,37.646,128.2,37.646c-48.1,0-57.856,2.917-73.412,4.862L7.142,63.9-11.333,78.484c0-.995,5.621-25.4,14.585-40.839C8.79,28.1,19.053,19.379,20.754,18.2,32.834,9.761,74.813-2.785,128.2-1.249Z" transform="translate(1465.292 841.061)" fill="#ad9057"/>
  </g>
</svg>
