<svg xmlns="http://www.w3.org/2000/svg" width="146" height="146" viewBox="0 0 146 146">
  <g id="code_icon" data-name="code icon" transform="translate(1309 -5236)">
    <rect id="Rectangle_22" data-name="Rectangle 22" width="146" height="146" transform="translate(-1309 5236)" fill="rgba(0,0,0,0)"/>
    <circle id="Ellipse_42" data-name="Ellipse 42" cx="2.433" cy="2.433" r="2.433" transform="translate(-1276.5 5270.867)"/>
    <circle id="Ellipse_43" data-name="Ellipse 43" cx="2.433" cy="2.433" r="2.433" transform="translate(-1284.603 5270.867)"/>
    <path id="Path_46" data-name="Path 46" d="M23.484,37.007l7.3-7.3a2.443,2.443,0,1,0-3.455-3.455l-9.052,9.076a2.433,2.433,0,0,0,0,3.431l9.052,9.076A2.435,2.435,0,1,0,30.784,44.4Z" transform="translate(-1287.818 5271.602)"/>
    <path id="Path_47" data-name="Path 47" d="M34.744,47.738a2.433,2.433,0,0,0,3.431,0l9.076-8.955a2.433,2.433,0,0,0,0-3.431l-9.076-9.076a2.435,2.435,0,0,0-3.431,3.455l7.3,7.3-7.3,7.3A2.433,2.433,0,0,0,34.744,47.738Z" transform="translate(-1264.232 5271.649)"/>
    <path id="Path_48" data-name="Path 48" d="M38.476,26.343a2.433,2.433,0,0,0-3.334.9L26.164,43.011a2.433,2.433,0,1,0,4.21,2.433l9.076-15.7a2.433,2.433,0,0,0-.973-3.407Z" transform="translate(-1276.043 5272.289)"/>
    <path id="Path_49" data-name="Path 49" d="M128.759,80.506a.706.706,0,0,1-.657-.462,25.379,25.379,0,0,0-4.064-7.032.706.706,0,0,1,0-.8,5.6,5.6,0,0,0-2.044-7.641l-1.825-1.1V19.04a7.3,7.3,0,0,0-7.3-7.3H12.3A7.3,7.3,0,0,0,5,19.04V80.7a5.694,5.694,0,0,0,5.67,5.67H43.933l-2.433,9H38.264a10.536,10.536,0,0,0-10.244,8.1H22.033a2.433,2.433,0,1,0,0,4.867H84.01a5.159,5.159,0,0,0,.17,1.728,5.475,5.475,0,0,0,2.6,3.407l5.134,2.969a5.6,5.6,0,0,0,7.641-2.068.754.754,0,0,1,.754-.341,23.7,23.7,0,0,0,8.079,0,.73.73,0,0,1,.754.365,5.6,5.6,0,0,0,4.867,2.774,5.524,5.524,0,0,0,2.8-.73l5.134-2.969a5.572,5.572,0,0,0,2.6-3.407,5.5,5.5,0,0,0-.56-4.234.73.73,0,0,1,0-.827A25.6,25.6,0,0,0,128.054,98a.681.681,0,0,1,.657-.462,5.621,5.621,0,0,0,5.6-5.6V86.005A5.6,5.6,0,0,0,128.759,80.506ZM9.867,19.04A2.433,2.433,0,0,1,12.3,16.607H112.87A2.433,2.433,0,0,1,115.3,19.04v7.3H9.867Zm.8,62.464a.8.8,0,0,1-.8-.8V31.207H115.3V61.039a5.572,5.572,0,0,0-6.156,2.433h0a.706.706,0,0,1-.73.316,24.991,24.991,0,0,0-8.079,0,.681.681,0,0,1-.73-.316h0a5.572,5.572,0,0,0-7.641-2.044L86.833,64.4a5.451,5.451,0,0,0-2.6,3.382,5.645,5.645,0,0,0,.535,4.258.657.657,0,0,1,0,.8A25.379,25.379,0,0,0,80.7,79.873a.706.706,0,0,1-.657.462,5.572,5.572,0,0,0-3.309,1.095Zm64.9,13.87h-29.2l2.433-9H74.35v5.572a5.645,5.645,0,0,0,1.217,3.431ZM38.288,100.24H81.6a26.765,26.765,0,0,0,1.9,3.236H33.154a5.67,5.67,0,0,1,5.11-3.236Zm91.2-8.3a.73.73,0,0,1-.73.73,5.621,5.621,0,0,0-5.232,3.6,20.586,20.586,0,0,1-3.261,5.67,5.621,5.621,0,0,0-.511,6.327.633.633,0,0,1,0,.535.706.706,0,0,1-.341.462l-5.061,2.871a.73.73,0,0,1-1-.292,5.621,5.621,0,0,0-5.767-2.7,19.273,19.273,0,0,1-6.473,0,5.621,5.621,0,0,0-5.767,2.725.754.754,0,0,1-1,.268l-5.134-2.969a.706.706,0,0,1-.341-.462.633.633,0,0,1,0-.535,5.67,5.67,0,0,0-.511-6.327,20.318,20.318,0,0,1-3.285-5.67,5.548,5.548,0,0,0-5.134-3.5.73.73,0,0,1-.73-.73V86.005a.706.706,0,0,1,.73-.73,5.6,5.6,0,0,0,5.207-3.6A19.978,19.978,0,0,1,88.439,76a5.67,5.67,0,0,0,.511-6.327.681.681,0,0,1,0-.56.633.633,0,0,1,.341-.438l5.134-2.969a.681.681,0,0,1,.365,0,.73.73,0,0,1,.608.341h0a5.645,5.645,0,0,0,5.767,2.725,19.272,19.272,0,0,1,6.473,0,5.67,5.67,0,0,0,5.718-2.871h0a.706.706,0,0,1,.973-.243l5.134,2.969a.633.633,0,0,1,.341.438.681.681,0,0,1,0,.56,5.6,5.6,0,0,0,.511,6.3,20.709,20.709,0,0,1,3.261,5.694,5.645,5.645,0,0,0,5.183,3.747.706.706,0,0,1,.73.73Z" transform="translate(-1305.833 5251.827)"/>
    <g id="Ellipse_65" data-name="Ellipse 65" transform="translate(-1211 5332)" fill="none" stroke="#000" stroke-width="4">
      <ellipse cx="10" cy="9" rx="10" ry="9" stroke="none"/>
      <ellipse cx="10" cy="9" rx="8" ry="7" fill="none"/>
    </g>
  </g>
</svg>
