<svg xmlns="http://www.w3.org/2000/svg" width="125.852" height="124.311" viewBox="0 0 125.852 124.311">
  <g id="Group_50" data-name="Group 50" transform="translate(0 -6.276)">
    <g id="Group_47" data-name="Group 47" transform="translate(41.436 0) rotate(16)">
      <g id="Group_46" data-name="Group 46" transform="translate(0 0)">
        <g id="Group_39" data-name="Group 39" transform="translate(16.309 49.723)">
          <path id="Path_64" data-name="Path 64" d="M9.146,35.3a9.151,9.151,0,0,1-6.472-15.62L17.9,4.452A1.3,1.3,0,1,1,19.741,6.29L4.512,21.52a6.55,6.55,0,1,0,9.74,8.73L29.026,11.832,21.847,2.07A1.3,1.3,0,0,1,23.941.529L31.713,11.1a1.3,1.3,0,0,1-.033,1.584l-15.4,19.2a9.153,9.153,0,0,1-6.636,3.411C9.476,35.3,9.311,35.3,9.146,35.3Z" transform="translate(0 0)"/>
        </g>
        <g id="Group_40" data-name="Group 40" transform="translate(45.954 7.612)">
          <path id="Path_65" data-name="Path 65" d="M9.431,44.793a1.294,1.294,0,0,1-.919-.381L.38,36.28a1.3,1.3,0,0,1,0-1.838L10.887,23.934,8.18,13.828a1.3,1.3,0,0,1,.336-1.255L20.708.381A1.3,1.3,0,0,1,21.963.045l8.7,2.334a1.3,1.3,0,0,1,.583,2.174l-9.3,9.3,1.74,6.5,6.5,1.742,9.3-9.3a1.3,1.3,0,0,1,2.174.583L44,22.081a1.3,1.3,0,0,1-.336,1.255L31.473,35.528a1.3,1.3,0,0,1-1.255.336L19.518,33l-5.581,6.955a1.3,1.3,0,0,1-2.027-1.626l6.112-7.618a1.3,1.3,0,0,1,1.35-.442l10.794,2.893L41.3,22.029,39.74,16.223,31.5,24.461a1.3,1.3,0,0,1-1.255.336L22.3,22.667a1.3,1.3,0,0,1-.919-.919L19.249,13.8a1.3,1.3,0,0,1,.336-1.255l8.238-8.238L22.017,2.75,10.887,13.88l2.707,10.106a1.3,1.3,0,0,1-.336,1.255L3.139,35.361l7.213,7.213a1.3,1.3,0,0,1-.921,2.219Z" transform="translate(0 0)"/>
        </g>
        <g id="Group_41" data-name="Group 41" transform="translate(28.986 31.152)">
          <path id="Path_66" data-name="Path 66" d="M38.56,53.871a9.8,9.8,0,0,1-7.972-4.109L3.635,13.118a1.3,1.3,0,0,1,2.094-1.541l26.96,36.652a.165.165,0,0,1,.013.019A7.177,7.177,0,1,0,43.63,39.018L7.747,3.139,2.218,8.668A1.3,1.3,0,0,1,.38,6.83L6.83.38a1.3,1.3,0,0,1,1.838,0l36.8,36.8A9.777,9.777,0,0,1,38.56,53.871Z"/>
        </g>
        <g id="Group_42" data-name="Group 42" transform="translate(22.599 25.615)">
          <path id="Path_67" data-name="Path 67" d="M5.687,16.585a1.3,1.3,0,0,1-.919-.381L.381,11.819A1.3,1.3,0,0,1,.4,9.961l10.02-9.6A1.3,1.3,0,0,1,12.239.38l4.176,4.176a1.3,1.3,0,0,1,0,1.838L6.606,16.2A1.293,1.293,0,0,1,5.687,16.585ZM3.158,10.92l2.529,2.527,7.972-7.972L11.3,3.119Z"/>
        </g>
        <g id="Group_43" data-name="Group 43" transform="translate(22.769 0)">
          <path id="Path_68" data-name="Path 68" d="M8.965,21.529a1.3,1.3,0,0,1-.919-.381L.38,13.482a1.3,1.3,0,0,1,0-1.838L2.437,9.587,1.479,5.168A1.3,1.3,0,0,1,1.83,3.975L5.425.38a1.3,1.3,0,0,1,1.838,0L21.146,14.264a1.3,1.3,0,0,1,0,1.838L17.552,19.7a1.3,1.3,0,0,1-1.194.351l-4.419-.958L9.882,21.146A1.289,1.289,0,0,1,8.965,21.529ZM3.137,12.563l5.828,5.828L10.6,16.752A1.3,1.3,0,0,1,11.8,16.4l4.419.958,2.174-2.174L6.344,3.137,4.169,5.311,5.128,9.73a1.3,1.3,0,0,1-.351,1.194Z"/>
        </g>
        <g id="Group_44" data-name="Group 44" transform="translate(0 7.087)">
          <path id="Path_69" data-name="Path 69" d="M3.4,33.439a1.229,1.229,0,0,1-.143-.007,1.3,1.3,0,0,1-.954-.6A14.859,14.859,0,0,1,4.352,14.384l7.189-7.012a1.3,1.3,0,1,1,1.816,1.86l-7.178,7A12.35,12.35,0,0,0,3.708,29.991l8.126-8.126a1.3,1.3,0,0,1,1.838,0l7.95,7.95,12.74-12.205L19.872,3.118l-.8.765a1.3,1.3,0,1,1-1.8-1.877L18.992.361A1.3,1.3,0,0,1,20.809.38L37.14,16.711a1.3,1.3,0,0,1-.02,1.857l-14.617,14a1.3,1.3,0,0,1-1.818-.019L12.752,24.62,4.315,33.056A1.292,1.292,0,0,1,3.4,33.439Z"/>
        </g>
        <g id="Group_45" data-name="Group 45" transform="translate(13.945 11.432)">
          <path id="Path_70" data-name="Path 70" d="M1.3,2.6a1.3,1.3,0,0,1-.253-.026A1.228,1.228,0,0,1,.8,2.5a1.235,1.235,0,0,1-.225-.119,1.51,1.51,0,0,1-.2-.162,1.381,1.381,0,0,1-.162-.2A1.441,1.441,0,0,1,.1,1.8a1.465,1.465,0,0,1-.074-.243A1.291,1.291,0,0,1,.381.379a1.374,1.374,0,0,1,.2-.162A1.235,1.235,0,0,1,.8.1,1.228,1.228,0,0,1,1.047.025,1.3,1.3,0,0,1,2.6,1.3,1.3,1.3,0,0,1,1.3,2.6Z" transform="translate(0 0)" fill="#1b3954"/>
        </g>
      </g>
    </g>
    <g id="Group_49" data-name="Group 49" transform="translate(0 42.49)">
      <path id="Path_71" data-name="Path 71" d="M31,0H53L65,50.536l7,20L85,88H0L14,70.536l6-20Z" transform="translate(0.5 0.097)" fill="#fff"/>
      <g id="Group_48" data-name="Group 48">
        <rect id="Rectangle_25" data-name="Rectangle 25" width="82.395" height="10.707" transform="translate(2.028 75.692)" fill="#fff"/>
        <path id="Path_56" data-name="Path 56" d="M88.264,353.2c.121.627-13.4,1.555-14.664,1.544-8.746-.087-17.247-1.6-25.92-2.221A188.941,188.941,0,0,0,20.767,352c-4.844.336-10.753,1.269-13.256,6.022a5.354,5.354,0,0,1,3.82-9.111H83.019A5.356,5.356,0,0,1,88.264,353.2Z" transform="translate(-4.676 -273.225)" fill="#e1d2d5"/>
        <path id="Path_57" data-name="Path 57" d="M91.2,6.584a9.9,9.9,0,0,0-5.477,6.223L65.707,80.189H57.72L77.737,12.807A9.881,9.881,0,0,1,91.2,6.584Z" transform="translate(-45.199 -4.497)" fill="#e1d2d5"/>
        <path id="Path_58" data-name="Path 58" d="M120.035,305.757H61.07l3.575-12.037h51.816Z" transform="translate(-47.823 -230.007)" fill="#f3aa9f"/>
        <path id="Path_59" data-name="Path 59" d="M143.165,139.406H102.56l5.605-18.876h29.393Z" transform="translate(-80.313 -94.385)" fill="#f3aa9f"/>
        <path id="Path_60" data-name="Path 60" d="M109.005,120.53h7.371l-5.553,18.694-.054.182H103.4Z" transform="translate(-80.97 -94.385)" fill="#e1978f"/>
        <path id="Path_61" data-name="Path 61" d="M61.15,309.888l3.557-11.978h7.241l-3.555,11.978Z" transform="translate(-47.885 -233.288)" fill="#e1978f"/>
        <path id="Path_62" data-name="Path 62" d="M114.646,77.053H52.19L72.7,8A11.18,11.18,0,0,1,94.136,8ZM55.68,74.45h55.471L91.628,8.738a8.577,8.577,0,0,0-16.443,0h0Z" transform="translate(-40.869 -0.001)"/>
        <path id="Path_63" data-name="Path 63" d="M79.046,356.252H5.954A5.961,5.961,0,0,1,0,350.3v-1.4a5.961,5.961,0,0,1,5.954-5.954H79.046A5.961,5.961,0,0,1,85,348.894v1.4a5.961,5.961,0,0,1-5.954,5.954ZM5.954,345.543A3.356,3.356,0,0,0,2.6,348.894v1.4a3.356,3.356,0,0,0,3.351,3.351H79.046A3.356,3.356,0,0,0,82.4,350.3v-1.4a3.356,3.356,0,0,0-3.351-3.351Z" transform="translate(0 -268.55)"/>
        <rect id="Rectangle_26" data-name="Rectangle 26" width="28.907" height="2.603" transform="translate(28.343 24.664)"/>
        <rect id="Rectangle_27" data-name="Rectangle 27" width="39.978" height="2.603" transform="translate(22.536 43.538)"/>
        <rect id="Rectangle_28" data-name="Rectangle 28" width="51.542" height="2.603" transform="translate(16.909 62.412)"/>
        <ellipse id="Ellipse_47" data-name="Ellipse 47" cx="0.831" cy="3.412" rx="0.831" ry="3.412" transform="translate(54.447 34.922) rotate(-15.67)" fill="#fff"/>
        <ellipse id="Ellipse_48" data-name="Ellipse 48" cx="0.831" cy="1.707" rx="0.831" ry="1.707" transform="translate(53.137 30.121) rotate(-15.67)" fill="#fff"/>
      </g>
    </g>
  </g>
</svg>
